# xmcd
# 
# Track frame offsets:
#     150
#     16400
#     36450
#     55895
#     76195
#     101160
#     120660
#     140840
#     160530
#     180460
#     199735
#     222840
#     246400
#     265420
#     285530
# 
# Disc length: 4041
# 
# Revision: 0
# Processed by: cddbd v1.5.2PL0 Copyright (c) Steve Scherf et al.
# Submitted via: fre:ac v1.1beta1pre2
# 
DISCID=da0fc70f
DTITLE=Toni Braxton - Secrets
DYEAR=1996
DGENRE=Soul
TTITLE0=Come on Over Here
TTITLE1=You're Makin' Me High
TTITLE2=There's No Me Without You
TTITLE3=Unbreak My Heart
TTITLE4=Talking in His Sleep
TTITLE5=How Could an Angel Break My Heart
TTITLE6=Find Me a Man
TTITLE7=Let It Flow
TTITLE8=Why Should I Care
TTITLE9=I Don't Want To
TTITLE10=I Love Me Some Him
TTITLE11=In the Late of Night
TTITLE12=You're Makin' Me High (T'empo Mix)
TTITLE13=Unbreak My Heart (classic radio mix)
TTITLE14=I Don't Want To (Frankie Knuckles radio edit)
EXTD=
EXTT0=
EXTT1=
EXTT2=
EXTT3=
EXTT4=
EXTT5=
EXTT6=
EXTT7=
EXTT8=
EXTT9=
EXTT10=
EXTT11=
EXTT12=
EXTT13=
EXTT14=
PLAYORDER=
